<svg width="148" height="32" viewBox="0 0 148 32" fill="none" xmlns="http://www.w3.org/2000/svg">
<g id="Logo">
<g id="Group">
<path id="Vector" d="M25.3086 20.0411C25.9669 16.7863 28.8926 14.7017 32.7326 14.2994L37.8161 13.7874L37.8526 13.6045C38.1818 12.0685 37.3041 11.5565 35.8412 11.5565C34.1955 11.5565 33.2081 12.2148 32.8789 13.2388H27.0641C27.9784 9.32569 31.6721 6.72913 37.0481 6.72913C42.4241 6.72913 44.9475 9.0697 43.9235 14.0434L41.6926 24.9417H36.3532L36.5361 22.528C35.2561 24.1737 32.6961 25.2708 30.0995 25.2708C26.7349 25.3074 24.6504 23.1863 25.3086 20.0411ZM36.9749 17.8468L37.0481 17.5177L33.5738 17.8468C32.3304 17.9931 31.7086 18.5783 31.5624 19.2731C31.3795 20.1508 31.7818 20.736 32.9886 20.736C34.8904 20.736 36.5726 19.4925 36.9749 17.8468Z" fill="#144DFF"/>
<path id="Vector_2" d="M66.4458 7.09473L62.9349 24.2833C61.9475 29.1839 57.9612 31.9999 51.9635 31.9999C46.1121 31.9999 43.7349 29.4399 44.4298 25.3439H50.5372C50.4641 26.6604 51.3784 27.2821 52.9875 27.2821C55.1452 27.2821 56.3887 26.3313 56.7178 24.7587L57.2298 22.2353C55.7669 23.3324 54.0115 23.881 52.0732 23.881C47.1727 23.881 45.7464 20.8456 46.6972 16.3107L48.5624 7.16786H54.7429L52.9875 15.7987C52.5487 17.8833 53.4629 18.7976 55.1452 18.7976C57.0835 18.7976 58.2172 17.5907 58.5829 15.7621L60.3384 7.16786H66.4458V7.09473Z" fill="#144DFF"/>
<path id="Vector_3" d="M96.2542 13.3486L94.4256 22.2354C94.0965 23.808 92.7068 24.9783 91.0976 24.9783H87.6965L89.8908 14.2263C90.2199 12.6171 89.4885 11.8491 88.1353 11.8491C86.7456 11.8491 85.5753 12.8731 85.2828 14.4091L83.125 24.9783H77.0176L79.2119 14.2263C79.5411 12.5806 78.8096 11.8125 77.4565 11.8125C76.0668 11.8125 74.9331 12.8365 74.6405 14.3725L72.4828 24.9417H66.2656L69.9228 7.05827H75.3719V8.92341C76.7251 7.5337 78.5536 6.72913 80.6016 6.72913C82.9422 6.72913 84.5148 7.78969 85.0268 9.39883C86.5993 7.67998 88.7936 6.72913 91.2805 6.72913C95.3765 6.7657 97.0588 9.43541 96.2542 13.3486Z" fill="#144DFF"/>
<path id="Vector_4" d="M110.26 6.76575C116.404 6.76575 119.549 10.4595 118.416 16.0183C117.282 21.504 112.638 25.2709 106.494 25.2709C100.35 25.2709 97.2044 21.5406 98.3015 16.0183C99.4352 10.4595 104.116 6.76575 110.26 6.76575ZM107.554 20.0777C110.004 20.0777 111.65 18.432 112.162 16.0183C112.711 13.3486 111.504 11.9955 109.31 11.9955C106.786 11.9955 105.067 13.6046 104.555 16.0915C104.043 18.6515 105.287 20.0777 107.554 20.0777Z" fill="#144DFF"/>
<path id="Vector_5" d="M144.164 7.20478V6.98535H145.59V7.20478H145.042V8.81392H144.749V7.20478H144.164Z" fill="#144DFF"/>
<path id="Vector_6" d="M145.922 6.98535H146.251L146.836 8.41165H146.873L147.458 6.98535H147.787V8.81392H147.531V7.49736L146.982 8.81392H146.763L146.214 7.49736H146.178V8.81392H145.922V6.98535Z" fill="#144DFF"/>
<path id="Vector_7" d="M17.0423 6.76572C14.2994 6.76572 11.776 7.67999 10.1303 9.17942L10.1668 7.09486H7.71656H5.01028L2.99885 16.384C2.52343 18.9806 4.27885 19.2731 5.15657 19.3463L5.12 19.4194C4.20571 19.5291 2.26743 20.0411 1.82857 22.2354L0.80457 27.4651C0.731427 27.7943 0 31.6708 0 31.6708H2.85257H3.10857C4.79085 31.6708 6.21714 30.5006 6.54628 28.8548L7.64342 23.5886C8.77714 24.7588 10.6423 25.344 12.7634 25.344C18.4686 25.344 22.9668 21.5771 24.1006 16.0183C25.1977 10.4229 22.4183 6.76572 17.0423 6.76572ZM17.8103 16.0914C17.2983 18.5417 15.2137 20.2606 12.6537 20.2606C10.0206 20.2606 8.63085 18.6149 9.14285 16.0914L9.21599 15.7988C9.69142 13.5314 11.6663 11.8126 14.336 11.8126C16.896 11.8126 18.3223 13.5314 17.8103 16.0914Z" fill="#144DFF"/>
<path id="Vector_8" d="M135.274 6.80227C132.677 6.80227 130.227 7.64341 128.727 8.99656L130.556 0H127.776H124.339L122.912 7.31428C122.327 10.3497 124.375 10.7154 125.399 10.8251L125.363 10.8983C124.302 11.0446 122.035 11.6663 121.486 14.1897L119.219 25.0148H122.656H124.595L125.436 22.9303C126.314 24.4297 128.362 25.344 131.068 25.344C136.627 25.344 140.979 21.6503 142.149 16.0548C143.319 10.496 140.576 6.80227 135.274 6.80227ZM135.932 16.0183C135.42 18.4686 133.299 20.2971 130.739 20.2971C128.032 20.2971 126.752 18.5783 127.228 16.3108L127.301 16.0183C127.813 13.568 129.788 11.8491 132.531 11.8491C135.054 11.8491 136.48 13.4948 135.932 16.0183Z" fill="#144DFF"/>
</g>
</g>
</svg>
